<svg width="54" height="54" viewBox="0 0 54 54" fill="none" xmlns="http://www.w3.org/2000/svg">
<path d="M2.22904 17.8631C1.8773 18.2889 1.93733 18.9192 2.36312 19.271C2.78891 19.6227 3.41922 19.5627 3.77096 19.1369L2.22904 17.8631ZM33 27L33.7071 26.2929C33.3226 25.9084 32.7012 25.9016 32.3084 26.2777C31.9156 26.6538 31.8954 27.2748 32.2628 27.6757L33 27ZM35 36.5L34.2526 37.1644L34.2721 37.1863L34.2929 37.2071L35 36.5ZM31.7474 31.3356C31.3805 30.9229 30.7484 30.8857 30.3356 31.2526C29.9229 31.6195 29.8857 32.2516 30.2526 32.6644L31.7474 31.3356ZM42.4739 29.4731L41.756 30.1692L42.4739 29.4731ZM42.5224 29.5316L41.7046 30.107L42.5224 29.5316ZM26.3737 12.9629L26.6559 12.0035L26.3737 12.9629ZM26.5916 13.0945L27.3095 12.3983L26.5916 13.0945ZM17.9404 10.4621L18.4773 9.61842L17.9404 10.4621ZM18.0678 10.5199L18.3499 9.56056L18.0678 10.5199ZM12.2187 7.34051L11.4477 6.70363L12.2187 7.34051ZM3.77096 19.1369L12.9897 7.9774L11.4477 6.70363L2.22904 17.8631L3.77096 19.1369ZM12.3357 8.08079L17.4035 11.3057L18.4773 9.61842L13.4095 6.39346L12.3357 8.08079ZM17.7856 11.4793L26.0916 13.9222L26.6559 12.0035L18.3499 9.56056L17.7856 11.4793ZM25.8737 13.7906L41.756 30.1692L43.1918 28.7769L27.3095 12.3983L25.8737 13.7906ZM41.7046 30.107C42.2022 30.8144 42.2779 31.3585 42.2203 31.7236C42.162 32.0936 41.9467 32.4145 41.6112 32.6452C40.9013 33.1334 39.8808 33.0949 39.2682 32.3598L37.7318 33.6402C39.1132 35.2979 41.3291 35.2666 42.7445 34.2931C43.4717 33.793 44.0413 33.0158 44.1959 32.035C44.3513 31.0495 44.0678 29.9903 43.3403 28.9562L41.7046 30.107ZM39.2682 32.3598C37.2418 29.9281 34.7189 27.3047 33.7071 26.2929L32.2929 27.7071C33.2811 28.6953 35.7582 31.2719 37.7318 33.6402L39.2682 32.3598ZM32.2628 27.6757L37.7628 33.6757L39.2372 32.3243L33.7372 26.3243L32.2628 27.6757ZM37.7929 33.7071C38.6876 34.6019 38.5686 35.6981 38.1135 36.2543C37.8952 36.5212 37.608 36.6635 37.274 36.655C36.9278 36.6462 36.3832 36.469 35.7071 35.7929L34.2929 37.2071C35.2168 38.131 36.2222 38.6288 37.2229 38.6544C38.2357 38.6802 39.0923 38.2163 39.6615 37.5207C40.7814 36.1519 40.8124 33.8981 39.2071 32.2929L37.7929 33.7071ZM35.7474 35.8356L31.7474 31.3356L30.2526 32.6644L34.2526 37.1644L35.7474 35.8356ZM41.756 30.1692C41.7377 30.1504 41.7209 30.1303 41.7046 30.107L43.3403 28.9562C43.2952 28.8921 43.2448 28.8316 43.1918 28.7769L41.756 30.1692ZM26.0916 13.9222C26.0088 13.8979 25.9338 13.8526 25.8737 13.7906L27.3095 12.3983C27.1294 12.2125 26.9042 12.0765 26.6559 12.0035L26.0916 13.9222ZM17.4035 11.3057C17.5221 11.3812 17.6507 11.4396 17.7856 11.4793L18.3499 9.56056C18.3949 9.57379 18.4378 9.59326 18.4773 9.61842L17.4035 11.3057ZM12.9897 7.9774C12.829 8.1719 12.5486 8.21623 12.3357 8.08079L13.4095 6.39346C12.771 5.98713 11.9298 6.12013 11.4477 6.70363L12.9897 7.9774Z" fill="#4196D2"/>
<path d="M37.0003 10.5L42.1234 7.7056C42.3402 7.58734 42.6109 7.64509 42.7605 7.84153L50.2194 17.6313C50.3779 17.8393 50.3493 18.1343 50.1539 18.308L46.0003 22L42.7955 28.8675C42.6506 29.1779 42.2437 29.2541 41.9964 29.0171L36.5003 23.75L30.6267 18.1211C30.5449 18.0427 30.4389 17.9944 30.326 17.9842L25.3129 17.5284C25.1218 17.511 24.9376 17.6046 24.8389 17.7691L22.0439 22.4274C22.0151 22.4754 21.9766 22.52 21.933 22.5553C18.9705 24.9475 17.0116 21.4812 18.5003 19L21.9026 13.1675C21.9655 13.0597 22.0663 12.9794 22.1854 12.9422L29.9275 10.5228C29.9758 10.5077 30.0261 10.5 30.0766 10.5H37.0003Z" fill="white"/>
<path d="M37.0003 10.5L42.1234 7.7056C42.3402 7.58734 42.6109 7.64509 42.7605 7.84153L50.2194 17.6313C50.3779 17.8393 50.3493 18.1343 50.1539 18.308L46.0003 22M37.0003 10.5H30.0766C30.0261 10.5 29.9758 10.5077 29.9275 10.5228L22.1854 12.9422C22.0663 12.9794 21.9655 13.0597 21.9026 13.1675L18.5003 19C17.0116 21.4812 18.9705 24.9475 21.933 22.5553C21.9766 22.52 22.0151 22.4754 22.0439 22.4274L24.8389 17.7691C24.9376 17.6046 25.1218 17.511 25.3129 17.5284L30.326 17.9842C30.4389 17.9944 30.5449 18.0427 30.6267 18.1211L36.5003 23.75L41.9964 29.0171C42.2437 29.2541 42.6506 29.1779 42.7955 28.8675L46.0003 22M37.0003 10.5L46.0003 22" stroke="#EB9AA7" stroke-width="2" stroke-linecap="round"/>
<path d="M35.5 37C38 39.5 34 42.5 32 40.5L29.5 38" stroke="#4196D2" stroke-width="1.5" stroke-linecap="round"/>
<path d="M32.5 41C34 43 30.8 46.3 28 43.5C24.5 40 15 33.5 8 23M8 23L3 18.5M8 23L18 10.5" stroke="#4196D2" stroke-width="2" stroke-linecap="round"/>
<rect x="12.4142" y="33.3794" width="7" height="4" rx="2" transform="rotate(-45.1761 12.4142 33.3794)" fill="white" stroke="#4196D2" stroke-width="2"/>
<rect x="14.4142" y="37.0884" width="8" height="4" rx="2" transform="rotate(-45.1761 14.4142 37.0884)" fill="white" stroke="#4196D2" stroke-width="2"/>
<rect x="16.4142" y="41.0884" width="8" height="4" rx="2" transform="rotate(-45.1761 16.4142 41.0884)" fill="white" stroke="#4196D2" stroke-width="2"/>
<rect x="20.4142" y="42.6695" width="6" height="4" rx="2" transform="rotate(-45.1761 20.4142 42.6695)" fill="white" stroke="#4196D2" stroke-width="2"/>
</svg>
