<svg width="54" height="54" viewBox="0 0 54 54" fill="none" xmlns="http://www.w3.org/2000/svg">
<path fill-rule="evenodd" clip-rule="evenodd" d="M8.30958 49.7734L5.36113 35.4204L10.5128 34.3621L13.4613 48.7151L8.30958 49.7734ZM3.37223 35.6777C3.16643 34.6759 3.81174 33.6969 4.81357 33.4911L10.2555 32.3732C11.2573 32.1674 12.2363 32.8127 12.4421 33.8145L12.5956 34.5617C15.0143 32.8765 19.6313 31.7986 25.3121 35.7967C27.0553 36.8831 27.9399 37.0806 29.0188 36.8649C29.6279 36.743 30.3397 36.4779 31.3182 36.0421C31.8774 35.7932 32.4866 35.506 33.1886 35.175C33.7273 34.921 34.3206 34.6413 34.9879 34.3333C37.2236 33.3014 39.0845 33.164 40.3994 33.8194C41.1273 34.1822 41.6096 34.7497 41.8528 35.397C43.8607 34.3687 46.4952 33.1548 47.0727 32.9239C48.5798 32.3211 50.3086 32.7068 51.2557 33.6962C51.757 34.2199 52.077 34.9674 51.8976 35.8102C51.7254 36.6191 51.1379 37.3001 50.3054 37.8434C46.3862 40.401 43.4181 42.492 41.0476 44.1665L40.8184 44.3284C38.5734 45.9144 36.8322 47.1445 35.3304 48.0164C33.7602 48.928 32.383 49.4904 30.8682 49.6731C29.3656 49.8543 27.8147 49.6511 25.9158 49.177C21.8842 48.2612 19.1769 47.9278 17.4469 47.8727C16.5797 47.8451 15.9821 47.8883 15.5985 47.9532C15.4994 47.97 15.4196 47.9874 15.3569 48.0036L15.4502 48.4578C15.656 49.4596 15.0107 50.4386 14.0088 50.6444L8.56691 51.7623C7.56508 51.9681 6.5861 51.3228 6.3803 50.3209L3.37223 35.6777ZM14.9542 46.0432C15.0535 46.0201 15.1571 45.9995 15.2647 45.9813C15.8215 45.8871 16.5607 45.8435 17.5106 45.8737C19.4134 45.9343 22.2585 46.2948 26.3694 47.2291L26.3903 47.2341C28.1902 47.6841 29.472 47.827 30.6287 47.6875C31.7759 47.5491 32.8871 47.1222 34.3262 46.2868C35.7493 45.4606 37.4253 44.2766 39.7293 42.649L39.8937 42.5329C42.2686 40.8554 45.2611 38.747 49.2123 36.1685C49.7983 35.7862 49.92 35.4944 49.9414 35.3938C49.9556 35.3271 49.9537 35.2283 49.811 35.0792C49.4701 34.7232 48.6231 34.4578 47.8154 34.7809C47.203 35.0258 43.695 36.6496 41.7811 37.695C41.3968 38.6136 40.6034 39.4063 39.4953 39.868C37.7246 40.6058 36.0998 41.462 34.5361 42.2859L34.536 42.2859L34.536 42.2859C33.6658 42.7444 32.8146 43.1929 31.9677 43.6055C30.8203 44.1645 29.6933 44.6476 28.6195 44.926C27.5443 45.2047 26.4528 45.297 25.4101 44.9991C23.0002 44.3105 21.2059 43.8528 19.9445 43.5681C18.64 43.2737 17.9927 43.1857 17.8144 43.1857C17.2621 43.1857 16.8144 42.738 16.8144 42.1857C16.8144 41.6334 17.2621 41.1857 17.8144 41.1857C18.2534 41.1857 19.1194 41.3316 20.3848 41.6172C21.6934 41.9125 23.5256 42.3806 25.9595 43.076C26.5371 43.2411 27.2396 43.2176 28.1176 42.99C28.9969 42.762 29.9821 42.3481 31.0917 41.8076C31.8268 41.4494 32.6258 41.0292 33.4714 40.5845L33.4714 40.5845L33.4715 40.5844C35.0933 39.7315 36.886 38.7886 38.7261 38.0219C39.4993 37.6997 39.8802 37.178 39.9972 36.7451C40.1296 36.2548 39.9604 35.8353 39.5072 35.6094C38.9792 35.3462 37.8182 35.2298 35.8261 36.1492C35.1985 36.4389 34.6152 36.7137 34.0755 36.9681L34.075 36.9683C33.3489 37.3105 32.7017 37.6154 32.1318 37.8692C31.1283 38.316 30.2486 38.6585 29.411 38.826C27.6011 39.188 26.1739 38.6938 24.2289 37.4782C24.213 37.4683 24.1974 37.4579 24.1822 37.4471C18.3772 33.3495 14.3155 35.4581 13.0519 36.7829L14.9542 46.0432Z" fill="#4197D3"/>
<path fill-rule="evenodd" clip-rule="evenodd" d="M22.1054 14.4026C21.986 14.164 21.7393 14 21.4545 14H18.5455C18.144 14 17.8182 14.3258 17.8182 14.7273V15.8342C17.6015 15.9105 17.3898 15.9985 17.1833 16.0967L16.4 15.3149C16.1156 15.0305 15.656 15.0305 15.3716 15.3149L13.3142 17.3724C13.0298 17.6567 13.0298 18.1164 13.3142 18.4007L14.0967 19.184C13.9993 19.3898 13.9113 19.6015 13.8342 19.8182H12.7273C12.3258 19.8182 12 20.144 12 20.5455V23.4545C12 23.856 12.3258 24.1818 12.7273 24.1818H13.8342C13.9105 24.3985 13.9985 24.6102 14.0967 24.8167L13.3142 25.6C13.0298 25.8844 13.0298 26.344 13.3142 26.6284L15.3716 28.6858C15.656 28.9702 16.1156 28.9702 16.4 28.6858L17.1833 27.9033C17.3898 28.0015 17.6015 28.0895 17.8182 28.1658V29.2727C17.8182 29.6742 18.144 30 18.5455 30H21.4545C21.856 30 22.1818 29.6742 22.1818 29.2727V28.1658C22.3985 28.0895 22.6102 28.0015 22.8167 27.9033L23.6 28.6858C23.8844 28.9702 24.344 28.9702 24.6284 28.6858L26.6858 26.6284C26.9702 26.344 26.9702 25.8844 26.6858 25.6L26.2389 25.1526C25.717 24.7096 25.2334 24.2228 24.794 23.6978C24.6853 24.0056 24.5475 24.3013 24.3818 24.5811C24.213 24.867 24.2596 25.2306 24.4938 25.4648L25.1425 26.1135L24.1134 27.1426L23.4647 26.4939C23.2305 26.2597 22.8676 26.2131 22.581 26.3819C22.1738 26.6226 21.7338 26.8044 21.2727 26.9237C20.9519 27.0059 20.7272 27.296 20.7272 27.6277V28.5455H19.2727V27.6277C19.2727 27.296 19.0479 27.0066 18.7272 26.9237C18.2654 26.8044 17.8254 26.6226 17.4189 26.3819C17.133 26.2131 16.7687 26.259 16.5352 26.4939L15.8865 27.1426L14.8574 26.1135L15.5061 25.4648C15.741 25.2306 15.7869 24.8662 15.6181 24.5811C15.3774 24.1739 15.1956 23.7339 15.0763 23.2728C14.9941 22.952 14.7039 22.7273 14.3723 22.7273H13.4545V21.2728H14.3723C14.7039 21.2728 14.9934 21.048 15.0763 20.7273C15.1956 20.2655 15.3774 19.8255 15.6181 19.419C15.7869 19.1331 15.7403 18.7695 15.5061 18.5353L14.8574 17.8866L15.8865 16.8575L16.5352 17.5062C16.7701 17.7419 17.1338 17.7877 17.4189 17.6182C17.8261 17.3775 18.2661 17.1957 18.7272 17.0764C19.0479 16.9942 19.2727 16.704 19.2727 16.3724V15.4546H20.7272V16.3724C20.7272 16.704 20.9519 16.9935 21.2727 17.0764C21.5491 17.1478 21.8176 17.2416 22.0759 17.357C22.0257 16.9116 22 16.4588 22 16C22 15.4584 22.0359 14.9252 22.1054 14.4026ZM22.4686 19.3319C21.8197 18.7311 20.9521 18.3635 20.0002 18.3635C17.9951 18.3635 16.3639 19.9947 16.3639 21.9998C16.3639 24.0049 17.9951 25.6362 20.0002 25.6362C21.9876 25.6362 23.6077 24.0337 23.6362 22.053C23.1408 21.2066 22.7461 20.2941 22.4686 19.3319ZM22.182 21.9999C22.182 20.797 21.2031 19.8181 20.0002 19.8181C18.7972 19.8181 17.8183 20.797 17.8183 21.9999C17.8183 23.2028 18.7972 24.1817 20.0002 24.1817C21.2031 24.1817 22.182 23.2028 22.182 21.9999Z" fill="#EB9AA7"/>
<path d="M34 26C39.5228 26 44 21.5228 44 16C44 10.4772 39.5228 6 34 6C28.4772 6 24 10.4772 24 16C24 21.5228 28.4772 26 34 26Z" stroke="#4197D3" stroke-width="2" stroke-linecap="round" stroke-linejoin="round"/>
<path d="M37.7497 12.666H31.083H32.9012C33.5441 12.666 34.1608 12.9169 34.6154 13.3634C35.07 13.8099 35.3254 14.4155 35.3254 15.047C35.3254 15.6784 35.07 16.284 34.6154 16.7306C34.1608 17.1771 33.5441 17.4279 32.9012 17.4279H31.083L34.7194 20.9993" stroke="#EB9AA7" stroke-linecap="round" stroke-linejoin="round"/>
<path d="M31 15H37.6667" stroke="#EB9AA7" stroke-linecap="round" stroke-linejoin="round"/>
</svg>
