<svg width="54" height="54" viewBox="0 0 54 54" fill="none" xmlns="http://www.w3.org/2000/svg">
<path d="M37.0941 23.8794C37.0941 24.4316 37.5418 24.8794 38.0941 24.8794C38.6464 24.8794 39.0941 24.4316 39.0941 23.8794H37.0941ZM39.0941 40.7647C39.0941 40.2124 38.6464 39.7647 38.0941 39.7647C37.5418 39.7647 37.0941 40.2124 37.0941 40.7647H39.0941ZM34.8145 47.0012H12.2796V49.0012H34.8145V47.0012ZM10 44.7216V12.6858H8V44.7216H10ZM12.2796 10.4062H16.1184V8.40625H12.2796V10.4062ZM31.6745 10.4062H34.8145V8.40625H31.6745V10.4062ZM37.0941 12.6858V19.055H39.0941V12.6858H37.0941ZM37.0941 19.055V23.8794H39.0941V19.055H37.0941ZM37.0941 43.1768V44.7216H39.0941V43.1768H37.0941ZM37.0941 40.7647V43.1768H39.0941V40.7647H37.0941ZM12.2796 47.0012C11.0206 47.0012 10 45.9806 10 44.7216H8C8 47.0852 9.91603 49.0012 12.2796 49.0012V47.0012ZM34.8145 49.0012C37.1781 49.0012 39.0941 47.0852 39.0941 44.7216H37.0941C37.0941 45.9806 36.0735 47.0012 34.8145 47.0012V49.0012ZM34.8145 10.4062C36.0735 10.4062 37.0941 11.4269 37.0941 12.6858H39.0941C39.0941 10.3223 37.1781 8.40625 34.8145 8.40625V10.4062ZM10 12.6858C10 11.4269 11.0206 10.4062 12.2796 10.4062V8.40625C9.91603 8.40625 8 10.3223 8 12.6858H10Z" fill="#4196D2"/>
<rect x="16.0625" y="6" width="15.6104" height="6.80996" rx="3.40498" stroke="#4196D2" stroke-width="2"/>
<path d="M15.5693 18.2207H31.5253" stroke="#4196D2" stroke-width="2" stroke-linecap="round"/>
<path d="M20.4785 27.2168H31.1372" stroke="#4196D2" stroke-width="2" stroke-linecap="round"/>
<path d="M15.5596 27.2168H16.3795" stroke="#4196D2" stroke-width="2" stroke-linecap="round"/>
<path d="M20.25 32.9609H27.75" stroke="#4196D2" stroke-width="2" stroke-linecap="round"/>
<path d="M15.5596 32.9473H16.3795" stroke="#4196D2" stroke-width="2" stroke-linecap="round"/>
<path d="M40.6168 26.2226C40.8553 25.9845 41.1383 25.7957 41.4498 25.6668C41.7614 25.538 42.0952 25.4717 42.4324 25.4717C42.7696 25.4717 43.1035 25.538 43.415 25.6668C43.7265 25.7957 44.0096 25.9845 44.248 26.2226C44.4864 26.4607 44.6756 26.7433 44.8046 27.0544C44.9336 27.3655 45 27.6989 45 28.0356C45 28.3723 44.9336 28.7057 44.8046 29.0167C44.6756 29.3278 44.4864 29.6104 44.248 29.8485L31.9928 42.0859L27 43.4456L28.3617 38.46L40.6168 26.2226Z" stroke="#EA9AA6" stroke-width="2" stroke-linecap="round" stroke-linejoin="round"/>
</svg>
