<svg width="54" height="54" viewBox="0 0 54 54" fill="none" xmlns="http://www.w3.org/2000/svg">
<g clip-path="url(#clip0_18_97)">
<path d="M22.9502 35.0998H31.0502H47.2502C48.3686 35.0998 49.2752 34.1932 49.2752 33.0748V12.8248C49.2752 11.7064 48.3686 10.7998 47.2502 10.7998H14.8502C13.7318 10.7998 12.8252 11.7064 12.8252 12.8248V22.9498" stroke="#4196D2" stroke-width="2" stroke-linecap="round" stroke-linejoin="round"/>
<path d="M20.9248 40.8867L41.1748 40.8867" stroke="#4196D2" stroke-width="2" stroke-linecap="round" stroke-linejoin="round"/>
<path d="M31.0498 37C31.0498 37.8396 31.0498 39.15 31.0498 39.15" stroke="#4196D2" stroke-width="2" stroke-linecap="square" stroke-linejoin="round"/>
<line x1="16.875" y1="17.9004" x2="35.1" y2="17.9004" stroke="#4196D2" stroke-width="2"/>
<line x1="16.875" y1="21.9502" x2="29.025" y2="21.9502" stroke="#4196D2" stroke-width="2"/>
<path d="M34 24.8184H35.6647" stroke="#EB9AA7" stroke-linecap="round" stroke-linejoin="round"/>
<path d="M38.9941 19.8242V21.4889" stroke="#EB9AA7" stroke-linecap="round" stroke-linejoin="round"/>
<path d="M36.6631 22.4874L35.4424 21.2666" stroke="#EB9AA7" stroke-linecap="round" stroke-linejoin="round"/>
<path d="M41.3242 22.4874L42.545 21.2666" stroke="#EB9AA7" stroke-linecap="round" stroke-linejoin="round"/>
<path d="M36.6631 27.1484L35.4424 28.3692" stroke="#EB9AA7" stroke-linecap="round" stroke-linejoin="round"/>
<path d="M39.1504 24.9746L45.2254 26.9996L42.5254 28.3496L41.1754 31.0496L39.1504 24.9746Z" stroke="#4196D2" stroke-width="1.4" stroke-linecap="round" stroke-linejoin="round"/>
<path fill-rule="evenodd" clip-rule="evenodd" d="M4.07729 29.6963C4.0524 29.9634 4.05344 30.2555 4.05344 30.5382C3.95387 35.3407 3.84083 40.7772 10.9087 43.2606C17.9465 40.7731 17.8904 35.3823 17.8407 30.6245C17.8168 30.2482 17.8158 29.9613 17.8158 29.7004V29.6609L17.7774 29.6599C15.0716 29.5653 12.846 28.7524 10.9719 27.1755L10.946 27.1537L10.9211 27.1755C9.05123 28.7493 6.88784 29.5393 4.11566 29.6599L4.0804 29.662L4.07729 29.6963ZM10.8964 44.5494C10.8331 44.5494 10.7688 44.5297 10.7014 44.5078C2.48756 41.7511 2.62342 35.2429 2.72195 30.4914C2.7458 29.9872 2.7458 29.507 2.7458 29.0267C2.7458 28.6785 3.0393 28.3957 3.39917 28.3957C6.34766 28.3957 8.59091 27.5766 10.4546 25.8189C10.578 25.7097 10.7429 25.6494 10.9099 25.6494C11.0779 25.6494 11.2407 25.7097 11.3652 25.8189C13.2299 27.5777 15.47 28.3957 18.4195 28.3957C18.7804 28.3957 19.0739 28.6785 19.0739 29.0267C19.0739 29.2492 19.0781 29.4831 19.0853 29.7232C19.0916 29.9737 19.0978 30.2315 19.0978 30.4893C19.1714 35.247 19.271 41.7636 11.1059 44.5037C11.0302 44.5276 10.9628 44.5494 10.8964 44.5494V44.5494Z" fill="#4197D2"/>
<path d="M4.07729 29.6963L4.41334 29.7276L4.41341 29.7267L4.07729 29.6963ZM4.05344 30.5382L4.39094 30.5452V30.5382H4.05344ZM10.9087 43.2606L10.7968 43.579L10.909 43.6184L11.0211 43.5788L10.9087 43.2606ZM17.8407 30.6245L18.1781 30.621L18.1781 30.6121L18.1775 30.6032L17.8407 30.6245ZM17.8158 29.6609H18.1533V29.3324L17.8249 29.3235L17.8158 29.6609ZM17.7774 29.6599L17.7656 29.9972L17.7683 29.9972L17.7774 29.6599ZM10.9719 27.1755L10.7546 27.4337L10.7546 27.4337L10.9719 27.1755ZM10.946 27.1537L11.1634 26.8955L10.9415 26.7087L10.7235 26.8999L10.946 27.1537ZM10.9211 27.1755L11.1385 27.4338L11.1437 27.4292L10.9211 27.1755ZM4.11566 29.6599L4.10099 29.3227L4.0958 29.323L4.11566 29.6599ZM4.0804 29.662L4.06054 29.325L3.77052 29.3421L3.74428 29.6315L4.0804 29.662ZM10.7014 44.5078L10.594 44.8278L10.5974 44.8289L10.7014 44.5078ZM2.72195 30.4914L2.38471 30.4754L2.38452 30.4844L2.72195 30.4914ZM10.4546 25.8189L10.2309 25.5659L10.223 25.5733L10.4546 25.8189ZM11.3652 25.8189L11.5969 25.5732L11.5877 25.5651L11.3652 25.8189ZM19.0853 29.7232L19.4227 29.7148L19.4227 29.713L19.0853 29.7232ZM19.0978 30.4893L18.7602 30.4893L18.7603 30.4945L19.0978 30.4893ZM11.1059 44.5037L11.2075 44.8256L11.2133 44.8236L11.1059 44.5037ZM3.74125 29.6649C3.7146 29.951 3.71594 30.2603 3.71594 30.5382H4.39094C4.39094 30.2507 4.3902 29.9758 4.41333 29.7276L3.74125 29.6649ZM3.71601 30.5312C3.66651 32.919 3.6078 35.5458 4.47688 37.8865C5.35732 40.2578 7.17593 42.3068 10.7968 43.579L11.0206 42.9421C7.57358 41.731 5.91478 39.82 5.10967 37.6516C4.29321 35.4526 4.3408 32.9599 4.39086 30.5452L3.71601 30.5312ZM11.0211 43.5788C14.6258 42.3047 16.4503 40.2673 17.3478 37.9142C18.2341 35.5905 18.2029 32.9867 18.1781 30.621L17.5032 30.628C17.5282 33.0201 17.5499 35.4905 16.7172 37.6736C15.8957 39.8271 14.2293 41.7289 10.7962 42.9423L11.0211 43.5788ZM18.1775 30.6032C18.1543 30.2378 18.1533 29.9596 18.1533 29.7004H17.4783C17.4783 29.9631 17.4793 30.2586 17.5038 30.6459L18.1775 30.6032ZM18.1533 29.7004V29.6609H17.4783V29.7004H18.1533ZM17.8249 29.3235L17.7865 29.3225L17.7683 29.9972L17.8066 29.9983L17.8249 29.3235ZM17.7892 29.3226C15.1504 29.2303 12.9994 28.4404 11.1892 26.9172L10.7546 27.4337C12.6925 29.0644 14.9928 29.9002 17.7656 29.9972L17.7892 29.3226ZM11.1893 26.9173L11.1634 26.8955L10.7286 27.4118L10.7546 27.4337L11.1893 26.9173ZM10.7235 26.8999L10.6986 26.9218L11.1437 27.4292L11.1685 27.4074L10.7235 26.8999ZM10.7038 26.9173C8.89846 28.4367 6.80928 29.2049 4.101 29.3227L4.13033 29.9971C6.96639 29.8737 9.204 29.0618 11.1385 27.4337L10.7038 26.9173ZM4.0958 29.323L4.06054 29.325L4.10027 29.9989L4.13553 29.9968L4.0958 29.323ZM3.74428 29.6315L3.74117 29.6658L4.41341 29.7267L4.41652 29.6924L3.74428 29.6315ZM10.8964 44.2119C10.8993 44.2119 10.8948 44.2123 10.8781 44.2084C10.8605 44.2042 10.8394 44.1978 10.8054 44.1867L10.5974 44.8289C10.6578 44.8485 10.7716 44.8869 10.8964 44.8869V44.2119ZM10.8088 44.1879C6.79251 42.8399 4.85241 40.5937 3.9098 38.1272C2.95666 35.633 3.00989 32.8849 3.05937 30.4984L2.38452 30.4844C2.33548 32.8494 2.27151 35.7311 3.27928 38.3681C4.29756 41.0327 6.39646 43.419 10.594 44.8278L10.8088 44.1879ZM3.05907 30.5073C3.08336 29.994 3.0833 29.5059 3.0833 29.0267H2.4083C2.4083 29.508 2.40824 29.9805 2.38482 30.4754L3.05907 30.5073ZM3.0833 29.0267C3.0833 28.8761 3.21425 28.7332 3.39917 28.7332V28.0582C2.86435 28.0582 2.4083 28.4809 2.4083 29.0267H3.0833ZM3.39917 28.7332C6.41976 28.7332 8.75036 27.8902 10.6861 26.0644L10.223 25.5733C8.43145 27.2631 6.27555 28.0582 3.39917 28.0582V28.7332ZM10.6782 26.0717C10.7373 26.0194 10.8217 25.9869 10.9099 25.9869V25.3119C10.6641 25.3119 10.4187 25.4 10.231 25.566L10.6782 26.0717ZM10.9099 25.9869C10.998 25.9869 11.0812 26.0187 11.1426 26.0726L11.5877 25.5651C11.4002 25.4007 11.1578 25.3119 10.9099 25.3119V25.9869ZM11.1336 26.0644C13.0704 27.8912 15.3979 28.7332 18.4195 28.7332V28.0582C15.5421 28.0582 13.3893 27.2641 11.5967 25.5733L11.1336 26.0644ZM18.4195 28.7332C18.6058 28.7332 18.7364 28.8765 18.7364 29.0267H19.4114C19.4114 28.4805 18.955 28.0582 18.4195 28.0582V28.7332ZM18.7364 29.0267C18.7364 29.2533 18.7407 29.4906 18.748 29.7334L19.4227 29.713C19.4155 29.4755 19.4114 29.2451 19.4114 29.0267H18.7364ZM18.7479 29.7316C18.7542 29.9825 18.7603 30.2363 18.7603 30.4893H19.4353C19.4353 30.2267 19.4289 29.9649 19.4227 29.7148L18.7479 29.7316ZM18.7603 30.4945C18.7973 32.8839 18.8357 35.6364 17.8763 38.132C16.9274 40.6004 14.9898 42.8443 10.9985 44.1837L11.2133 44.8236C15.387 43.423 17.4822 41.0385 18.5064 38.3742C19.5201 35.7371 19.4719 32.8524 19.4352 30.4841L18.7603 30.4945ZM11.0042 44.1818C10.9629 44.1949 10.939 44.2024 10.9176 44.2076C10.8981 44.2124 10.8932 44.2119 10.8964 44.2119V44.8869C11.0255 44.8869 11.1469 44.8447 11.2075 44.8255L11.0042 44.1818Z" fill="#4197D3"/>
<path fill-rule="evenodd" clip-rule="evenodd" d="M4.09733 26.5919C3.77671 26.5919 3.51562 26.3317 3.51562 26.0121C3.51562 25.6925 3.77671 25.4322 4.09733 25.4322C5.28581 25.4322 6.23512 25.2011 6.92022 24.7462C7.04867 24.6608 7.20533 24.6306 7.3578 24.6608C7.51028 24.69 7.64187 24.7774 7.7275 24.9065C7.81314 25.0345 7.84552 25.1897 7.81419 25.3406C7.7839 25.4926 7.69513 25.6248 7.56563 25.7102C6.68628 26.2952 5.5187 26.5919 4.09733 26.5919" fill="#EB9AA7"/>
<path fill-rule="evenodd" clip-rule="evenodd" d="M12.2293 32.3994C12.451 32.3994 12.6321 32.5786 12.6321 32.7992C12.6321 33.0199 12.451 33.1991 12.2293 33.1991H11.1755L11.1939 33.2222C11.3548 33.4438 11.4698 33.6977 11.5277 33.9692H12.2293C12.4362 33.9692 12.6064 34.1234 12.6303 34.3219L12.6321 34.3681C12.6321 34.5897 12.451 34.7679 12.2293 34.7679L11.5286 34.767L11.5148 34.8335C11.3089 35.6812 10.5576 36.3119 9.66102 36.3525L9.56722 36.3544H9.51573L11.4468 38.1624C11.593 38.3046 11.6114 38.528 11.4919 38.6896L11.4597 38.7293C11.307 38.8882 11.0532 38.8965 10.8923 38.745L8.22283 36.2454C8.14743 36.1706 8.10145 36.0681 8.10145 35.9638C8.09777 35.7412 8.27708 35.5593 8.50421 35.5556H9.56906C10.0721 35.5547 10.5098 35.2435 10.6836 34.7984L10.6946 34.767L8.50238 34.7679C8.29639 34.7679 8.12536 34.6137 8.10237 34.4152L8.09961 34.3681C8.09961 34.1483 8.28076 33.9692 8.50238 33.9692H10.6928L10.6836 33.9461C10.519 33.5315 10.1153 33.2305 9.64447 33.2009L9.56906 33.1991H8.50238C8.28076 33.1991 8.09961 33.0199 8.09961 32.7992C8.09961 32.5786 8.28076 32.3994 8.50238 32.3994H12.2293Z" fill="#EB9AA7"/>
</g>
<defs>
<clipPath id="clip0_18_97">
<rect width="54" height="54" fill="white"/>
</clipPath>
</defs>
</svg>
